<svg width="46" height="46" viewBox="0 0 46 46" fill="none" xmlns="http://www.w3.org/2000/svg">
<g clip-path="url(#clip0_787_917)">
<path d="M1.62523 44.8251C1.44523 44.8251 1.26523 44.7801 1.13023 44.6451C0.860234 44.3751 0.860234 43.9701 1.13023 43.7001L43.8802 0.950059C44.1502 0.680059 44.5552 0.680059 44.8252 0.950059C45.0952 1.22006 45.0952 1.62506 44.8252 1.89506L2.07523 44.6451C1.98523 44.7351 1.80523 44.8251 1.62523 44.8251Z" fill="#BF6159"/>
<path d="M15.35 24.7549C10.22 24.4849 6.12496 20.6149 5.58496 15.5749C4.95496 9.90494 9.04996 4.77494 14.72 4.18994C20.39 3.55994 25.475 7.65494 26.105 13.3249C26.15 13.6849 25.88 14.0449 25.52 14.0449C25.16 14.0899 24.8 13.8199 24.8 13.4599C24.26 8.55494 19.805 4.95494 14.9 5.49494C9.94996 6.03494 6.34996 10.4899 6.88996 15.3949C7.38496 19.8049 10.94 23.1799 15.395 23.4049C15.755 23.4049 16.07 23.7199 16.025 24.1249C15.98 24.4849 15.71 24.7549 15.35 24.7549Z" fill="#BF6159"/>
<path d="M22.6848 14.9C22.3248 14.9 22.0098 14.63 22.0098 14.27C21.9198 11.39 19.8948 9.00504 17.1048 8.42004C16.7448 8.33004 16.5198 7.97004 16.5648 7.61004C16.6098 7.25004 17.0148 7.02504 17.3748 7.07004C20.7948 7.79004 23.2698 10.715 23.3598 14.225C23.3598 14.585 23.0448 14.9 22.6848 14.9Z" fill="#BF6159"/>
<path d="M29.1648 38.345C28.8498 38.345 28.5348 38.12 28.4898 37.76C28.4448 37.4 28.7148 37.04 29.0748 36.995C32.1348 36.59 34.8798 35.015 36.7698 32.54C38.6598 30.065 39.4698 27.005 39.0648 23.945C38.6148 20.66 36.7698 17.69 34.0248 15.845C33.7098 15.62 33.6198 15.215 33.8448 14.9C34.0698 14.585 34.4748 14.495 34.7898 14.72C37.8948 16.79 39.9198 20.075 40.4148 23.765C40.8648 27.185 39.9648 30.605 37.8948 33.35C35.7798 36.095 32.7648 37.85 29.2998 38.345C29.2548 38.345 29.2098 38.345 29.1648 38.345Z" fill="#BF6159"/>
<path d="M15.26 26.87C14.9 26.87 14.63 26.6 14.585 26.24C14.54 25.745 14.54 25.25 14.585 24.755C14.99 17.6 21.155 12.155 28.265 12.56C28.625 12.56 28.895 12.92 28.895 13.28C28.895 13.64 28.535 13.91 28.175 13.91C21.83 13.55 16.34 18.455 15.935 24.845C15.89 25.295 15.89 25.745 15.935 26.195C15.98 26.555 15.71 26.87 15.26 26.87C15.305 26.87 15.305 26.87 15.26 26.87Z" fill="#BF6159"/>
<path d="M36.5452 26.15C36.1852 26.15 35.8702 25.835 35.8702 25.475C35.8702 22.46 34.2502 19.715 31.6402 18.23C31.3252 18.05 31.1902 17.645 31.3702 17.33C31.5502 17.015 31.9552 16.88 32.2702 17.06C35.2852 18.77 37.1752 22.01 37.1752 25.475C37.2202 25.88 36.9502 26.15 36.5452 26.15Z" fill="#BF6159"/>
<path d="M22.2352 45.2749C21.6952 45.2749 21.2002 45.2299 20.6602 45.0949C16.5652 44.2399 13.8652 40.1899 14.7202 36.0949C15.1252 34.1149 16.2952 32.4049 18.0052 31.2799C19.7152 30.1549 21.7402 29.7499 23.7202 30.1999C27.8152 31.0549 30.5152 35.1049 29.6602 39.1999C29.2552 41.1799 28.0852 42.8899 26.3752 44.0149C25.1602 44.8249 23.7202 45.2749 22.2352 45.2749ZM22.2352 31.3699C21.0202 31.3699 19.8502 31.7299 18.8152 32.4049C17.4202 33.3049 16.4302 34.7449 16.1152 36.3649C15.3952 39.7399 17.6002 43.0699 20.9752 43.7899C22.6402 44.1499 24.3052 43.7899 25.7002 42.8899C27.0952 41.9899 28.0852 40.5499 28.4002 38.9299C29.0752 35.5549 26.9152 32.2249 23.4952 31.5049C23.0902 31.4149 22.6402 31.3699 22.2352 31.3699Z" fill="#BF6159"/>
<path d="M26.3749 39.155C26.3299 39.155 26.2849 39.155 26.2399 39.155C25.8799 39.065 25.6549 38.705 25.6999 38.345C26.1049 36.41 24.8449 34.565 22.9549 34.16C22.5949 34.07 22.3699 33.71 22.4149 33.35C22.5049 32.99 22.8649 32.765 23.2249 32.81C25.8799 33.35 27.5449 35.96 27.0049 38.57C26.9599 38.975 26.6899 39.155 26.3749 39.155Z" fill="#BF6159"/>
</g>
<defs>
<clipPath id="clip0_787_917">
<rect width="45" height="45" fill="white" transform="translate(0.5 0.5)"/>
</clipPath>
</defs>
</svg>
