<svg width="45" height="46" viewBox="0 0 45 46" fill="none" xmlns="http://www.w3.org/2000/svg">
<g clip-path="url(#clip0_787_950)">
<path d="M0.899893 45.2751C0.719893 45.2751 0.539893 45.2301 0.404893 45.0951C0.134893 44.8251 0.134893 44.4201 0.404893 44.1501L43.6049 0.950059C43.8749 0.680059 44.2799 0.680059 44.5499 0.950059C44.8199 1.22006 44.8199 1.62506 44.5499 1.89506L1.34989 45.0951C1.21489 45.2301 1.07989 45.2751 0.899893 45.2751Z" fill="#BF6159"/>
<path d="M18.045 41.81C16.335 41.81 14.895 40.415 14.895 38.66C14.895 36.905 16.29 35.51 18.045 35.51C19.755 35.51 21.195 36.905 21.195 38.66C21.195 39.515 20.88 40.28 20.295 40.865C19.665 41.495 18.9 41.81 18.045 41.81ZM18.045 36.905C17.055 36.905 16.245 37.715 16.245 38.705C16.245 39.695 17.055 40.505 18.045 40.505C18.54 40.505 18.99 40.325 19.305 39.965C19.665 39.605 19.845 39.155 19.845 38.705C19.845 37.715 19.035 36.905 18.045 36.905Z" fill="#BF6159"/>
<path d="M26.055 38.075C24.345 38.075 22.905 36.68 22.905 34.925C22.905 33.215 24.3 31.775 26.055 31.775C27.765 31.775 29.205 33.17 29.205 34.925C29.16 36.68 27.765 38.075 26.055 38.075ZM26.055 33.125C25.065 33.125 24.255 33.935 24.255 34.925C24.255 35.915 25.065 36.725 26.055 36.725C27.045 36.725 27.855 35.915 27.855 34.925C27.81 33.935 27.045 33.125 26.055 33.125Z" fill="#BF6159"/>
<path d="M13.9949 27.995C13.9049 27.995 13.8149 27.995 13.7249 27.95C13.4099 27.77 13.2299 27.41 13.4099 27.05L17.7749 18.005V4.82002C17.7749 4.46002 18.0899 4.14502 18.4499 4.14502H26.5949C26.9549 4.14502 27.2699 4.46002 27.2699 4.82002V14.72C27.2699 15.08 26.9549 15.395 26.5949 15.395C26.2349 15.395 25.9199 15.08 25.9199 14.72V5.45002H19.0799V18.095C19.0799 18.185 19.0349 18.275 19.0349 18.365L14.5799 27.545C14.4899 27.86 14.2199 27.995 13.9949 27.995Z" fill="#BF6159"/>
<path d="M11.475 44.87C9.63003 44.87 7.96503 43.61 7.42503 41.81C7.33503 41.45 7.51503 41.09 7.87503 41C8.23503 40.91 8.59503 41.09 8.68503 41.45C9.04503 42.665 10.17 43.52 11.43 43.52H33.435C35.01 43.52 36.315 42.215 36.315 40.64C36.315 40.19 36.225 39.785 36.045 39.38L27.63 21.785C27.45 21.47 27.63 21.065 27.945 20.885C28.26 20.705 28.665 20.885 28.845 21.2L37.35 38.795C37.62 39.38 37.755 40.01 37.755 40.64C37.755 42.98 35.865 44.87 33.525 44.87H11.475Z" fill="#BF6159"/>
<path d="M26.55 5.45001H18.45C17.865 5.45001 17.325 5.22501 16.92 4.82001C16.515 4.41501 16.29 3.875 16.29 3.29C16.29 2.075 17.28 1.13 18.45 1.13H26.55C27.765 1.13 28.71 2.12 28.71 3.29C28.71 4.505 27.765 5.45001 26.55 5.45001ZM18.45 2.48C18 2.48 17.64 2.84 17.64 3.29C17.64 3.515 17.73 3.74 17.865 3.875C18 4.055 18.225 4.145 18.45 4.145H26.55C27 4.145 27.36 3.785 27.36 3.335C27.36 2.885 27 2.525 26.55 2.525H18.45V2.48Z" fill="#BF6159"/>
<path d="M31.86 29.705H20.655C20.295 29.705 19.98 29.39 19.98 29.03C19.98 28.67 20.295 28.355 20.655 28.355H31.86C32.22 28.355 32.535 28.67 32.535 29.03C32.535 29.435 32.22 29.705 31.86 29.705Z" fill="#BF6159"/>
</g>
<defs>
<clipPath id="clip0_787_950">
<rect width="45" height="45" fill="white" transform="translate(0 0.5)"/>
</clipPath>
</defs>
</svg>
