<svg width="45" height="46" viewBox="0 0 45 46" fill="none" xmlns="http://www.w3.org/2000/svg">
<g clip-path="url(#clip0_787_933)">
<path d="M27.8549 41.45C27.6299 41.45 27.4049 41.315 27.2699 41.135C23.1749 34.025 25.6049 24.935 32.7149 20.84C34.9649 19.535 37.5299 18.86 40.1399 18.86C40.3649 18.86 40.5899 18.995 40.7249 19.175C42.7049 22.595 43.2449 26.6 42.2099 30.47C41.1749 34.295 38.7449 37.49 35.2799 39.515C33.0299 40.775 30.4649 41.45 27.8549 41.45ZM39.7349 20.165C37.4849 20.21 35.2799 20.84 33.3449 21.965C27.0449 25.655 24.7949 33.71 28.2599 40.1C30.5099 40.055 32.7149 39.425 34.6499 38.3C37.7999 36.5 40.0049 33.575 40.9499 30.065C41.8049 26.735 41.3999 23.225 39.7349 20.165Z" fill="#BF6159"/>
<path d="M27.8549 41.45C27.7199 41.45 27.6299 41.405 27.5399 41.36C27.2249 41.18 27.0899 40.775 27.3149 40.46L37.5749 22.685C37.7549 22.37 38.1599 22.235 38.4749 22.46C38.7899 22.64 38.9249 23.045 38.6999 23.36L28.4399 41.135C28.3049 41.36 28.0799 41.45 27.8549 41.45Z" fill="#BF6159"/>
<path d="M33.4801 31.685C33.1651 31.685 32.8951 31.505 32.8501 31.19C32.7601 30.83 32.9851 30.47 33.3001 30.38L38.7901 28.895C39.1501 28.805 39.5101 29.03 39.6001 29.345C39.6901 29.705 39.4651 30.065 39.1501 30.155L33.6601 31.64C33.6151 31.685 33.5701 31.685 33.4801 31.685Z" fill="#BF6159"/>
<path d="M31.23 35.5999C30.915 35.5999 30.645 35.42 30.6 35.1049L28.98 29.03C28.89 28.67 29.115 28.3099 29.43 28.2199C29.79 28.1299 30.15 28.3549 30.24 28.6699L31.86 34.7449C31.95 35.1049 31.725 35.465 31.41 35.555C31.365 35.5999 31.275 35.5999 31.23 35.5999Z" fill="#BF6159"/>
<path d="M21.5999 45.23C21.4649 45.23 21.3749 45.185 21.2849 45.14L2.60992 34.34C2.42992 34.25 2.29492 34.025 2.29492 33.8V12.2C2.29492 11.975 2.42992 11.75 2.60992 11.615L21.2849 0.814995C21.5099 0.679995 21.7349 0.679995 21.9599 0.814995L40.6349 11.615C40.8149 11.75 40.9499 11.975 40.9499 12.2V16.115C40.9499 16.475 40.6349 16.79 40.2749 16.79C39.9149 16.79 39.5999 16.475 39.5999 16.115V12.605L21.5999 2.21L3.59992 12.605V33.395L21.5999 43.79L24.6599 42.035C24.9749 41.855 25.3799 41.945 25.5599 42.26C25.7399 42.575 25.6499 42.98 25.3349 43.16L21.9599 45.095C21.8699 45.185 21.7349 45.23 21.5999 45.23Z" fill="#BF6159"/>
<path d="M21.6002 23.6749C21.4652 23.6749 21.3752 23.6299 21.2852 23.5849L2.61017 12.7849C2.29517 12.6049 2.16017 12.1999 2.38517 11.8849C2.56517 11.5699 2.97017 11.4349 3.28517 11.6599L21.9602 22.4599C22.2752 22.6399 22.4102 23.0449 22.1852 23.3599C22.0952 23.5399 21.8702 23.6749 21.6002 23.6749Z" fill="#BF6159"/>
<path d="M21.5998 45.23C21.2398 45.23 20.9248 44.915 20.9248 44.555V23C20.9248 22.64 21.2398 22.325 21.5998 22.325C21.9598 22.325 22.2748 22.64 22.2748 23V44.555C22.2748 44.915 22.0048 45.23 21.5998 45.23Z" fill="#BF6159"/>
<path d="M21.6001 23.675C21.3751 23.675 21.1501 23.54 21.0151 23.36C20.8351 23.045 20.9251 22.64 21.2401 22.46L39.9151 11.66C40.2301 11.48 40.6351 11.57 40.8151 11.885C40.9951 12.2 40.9051 12.605 40.5901 12.785L21.9151 23.585C21.8701 23.63 21.7351 23.675 21.6001 23.675Z" fill="#BF6159"/>
<path d="M12.2851 18.2751C12.0601 18.2751 11.8351 18.1401 11.7001 17.9601C11.5201 17.6451 11.6101 17.2401 11.9251 17.0601L30.0601 5.99006C30.3751 5.81006 30.7801 5.90006 30.9601 6.21506C31.1401 6.53006 31.0501 6.93506 30.7351 7.11506L12.6451 18.1851C12.5101 18.2301 12.4201 18.2751 12.2851 18.2751Z" fill="#BF6159"/>
</g>
<defs>
<clipPath id="clip0_787_933">
<rect width="45" height="45" fill="white" transform="translate(0 0.5)"/>
</clipPath>
</defs>
</svg>
